<svg width="40" height="38" viewBox="0 0 40 38" fill="none" xmlns="http://www.w3.org/2000/svg">
<rect x="38.8457" y="37" width="36" height="36" rx="18" transform="rotate(180 38.8457 37)" fill="#FCFCFC" fill-opacity="0.3"/>
<path fill-rule="evenodd" clip-rule="evenodd" d="M21.7104 24.1352C21.9701 24.3949 22.3912 24.3949 22.6509 24.1352C22.9106 23.8755 22.9106 23.4545 22.6509 23.1948L18.4496 18.9935L22.6509 14.7922C22.9106 14.5325 22.9106 14.1114 22.6509 13.8517C22.3912 13.592 21.9702 13.592 21.7105 13.8517L17.0418 18.5205C17.0408 18.5214 17.0399 18.5223 17.0389 18.5233C16.7792 18.783 16.7792 19.204 17.0389 19.4637L21.7104 24.1352Z" fill="#FCFCFC"/>
<rect x="38.8457" y="37" width="36" height="36" rx="18" transform="rotate(180 38.8457 37)" stroke="#FCFCFC" stroke-width="2"/>
</svg>
